<svg width="200" height="80" viewBox="0 0 200 80" fill="none" xmlns="http://www.w3.org/2000/svg">
  <title>LEGNA</title>
  <defs>
    <linearGradient id="emberGradient" x1="0%" y1="0%" x2="100%" y2="100%">
      <stop offset="0%" style="stop-color:#E54728"/>
      <stop offset="100%" style="stop-color:#B87333"/>
    </linearGradient>
  </defs>
  
  <!-- L -->
  <path d="M20 15 L20 55 L35 55 L35 50 L25 50 L25 15 Z" fill="url(#emberGradient)"/>
  
  <!-- E -->
  <path d="M45 15 L45 55 L65 55 L65 50 L50 50 L50 37 L60 37 L60 32 L50 32 L50 20 L65 20 L65 15 Z" fill="url(#emberGradient)"/>
  
  <!-- G -->
  <path d="M75 25 Q75 15 85 15 Q95 15 95 25 L95 30 L90 30 L90 25 Q90 20 85 20 Q80 20 80 25 L80 45 Q80 50 85 50 Q90 50 90 45 L90 40 L95 40 L95 45 Q95 55 85 55 Q75 55 75 45 Z" fill="url(#emberGradient)"/>
  
  <!-- N -->
  <path d="M105 15 L105 55 L110 55 L110 25 L120 55 L125 55 L125 15 L120 15 L120 45 L110 15 Z" fill="url(#emberGradient)"/>
  
  <!-- A -->
  <path d="M135 55 L135 50 L145 50 L145 55 L150 55 L140 15 L135 15 L125 55 L130 55 L132 47 L148 47 L150 55 M134 42 L146 42 L140 25 Z" fill="url(#emberGradient)"/>
  
  <!-- Flame accent -->
  <path d="M170 20 Q175 15 180 20 Q185 25 180 35 Q175 40 170 35 Q165 30 170 20" fill="#E54728" opacity="0.8"/>
  <path d="M175 25 Q178 22 180 25 Q182 28 180 32 Q178 35 175 32 Q172 29 175 25" fill="#B87333"/>
  
  <!-- Subtitle -->
  <text x="20" y="70" font-family="serif" font-style="italic" font-size="10" fill="#B87333" opacity="0.8">la brace che unisce</text>
</svg>